<svg width="706" height="518" viewBox="0 0 706 518" fill="none" xmlns="http://www.w3.org/2000/svg">
<path d="M196.4 82.7998C204.8 115.2 226.4 136.8 258.8 145.2C226.4 153.6 204.8 175.2 196.4 207.6C188 175.2 166.4 153.6 134 145.2C166.4 136.8 188 115.2 196.4 82.7998Z" fill="white"/>
<path d="M362 0C376.4 55.2 412.4 91.2 467.6 105.6C412.4 120 376.4 156 362 211.2C347.6 156 311.6 120 256.4 105.6C311.6 91.2 347.6 55.2 362 0Z" fill="white"/>
<path d="M510.8 99.5996C520.4 130.8 540.8 151.2 572 160.8C540.8 170.4 520.4 190.8 510.8 222C501.2 190.8 480.8 170.4 449.6 160.8C480.8 151.2 501.2 130.8 510.8 99.5996Z" fill="white"/>
<path d="M22.7557 518V256.182H126.051C145.909 256.182 162.827 259.974 176.804 267.56C190.781 275.06 201.435 285.5 208.764 298.881C216.179 312.176 219.886 327.517 219.886 344.903C219.886 362.29 216.136 377.631 208.636 390.926C201.136 404.222 190.27 414.577 176.037 421.991C161.889 429.406 144.759 433.114 124.645 433.114H58.8068V388.753H115.696C126.349 388.753 135.128 386.92 142.031 383.256C149.02 379.506 154.219 374.349 157.628 367.787C161.122 361.139 162.869 353.511 162.869 344.903C162.869 336.21 161.122 328.625 157.628 322.148C154.219 315.585 149.02 310.514 142.031 306.935C135.043 303.27 126.179 301.438 115.44 301.438H78.1108V518H22.7557ZM348.654 518H255.842V256.182H349.421C375.756 256.182 398.427 261.423 417.433 271.906C436.438 282.304 451.055 297.261 461.282 316.778C471.594 336.295 476.751 359.648 476.751 386.835C476.751 414.108 471.594 437.545 461.282 457.148C451.055 476.75 436.353 491.793 417.177 502.276C398.086 512.759 375.245 518 348.654 518ZM311.197 470.571H346.353C362.717 470.571 376.481 467.673 387.646 461.878C398.896 455.997 407.333 446.92 412.958 434.648C418.668 422.29 421.523 406.352 421.523 386.835C421.523 367.489 418.668 351.679 412.958 339.406C407.333 327.134 398.938 318.099 387.773 312.304C376.609 306.509 362.844 303.611 346.481 303.611H311.197V470.571ZM517.756 518V256.182H691.108V301.821H573.111V364.207H679.602V409.847H573.111V518H517.756Z" fill="white"/>
</svg>
